<svg width="25.000000" height="25.000000" viewBox="0 0 25 25" fill="none" xmlns="http://www.w3.org/2000/svg" xmlns:xlink="http://www.w3.org/1999/xlink">
	<desc>
			Created with Pixso.
	</desc>
	<defs>
		<clipPath id="clip150_221">
			<rect id="Поиск" width="25.000000" height="25.000000" fill="white" fill-opacity="0"/>
		</clipPath>
	</defs>
	<g clip-path="url(#clip150_221)">
		<path id="path" d="M10.93 19.79C15.82 19.79 19.79 15.82 19.79 10.93C19.79 6.04 15.82 2.08 10.93 2.08C6.04 2.08 2.08 6.04 2.08 10.93C2.08 15.82 6.04 19.79 10.93 19.79Z" fill="#000000" fill-opacity="0" fill-rule="nonzero"/>
		<path id="path" d="M19.79 10.93C19.79 6.04 15.82 2.08 10.93 2.08C6.04 2.08 2.08 6.04 2.08 10.93C2.08 15.82 6.04 19.79 10.93 19.79C15.82 19.79 19.79 15.82 19.79 10.93Z" stroke="#FFFFFF" stroke-opacity="1.000000" stroke-width="1.500000" stroke-linejoin="round"/>
		<path id="path" d="M14.38 6.94L14.41 6.94C14.71 7.23 14.71 7.7 14.41 8C14.11 8.29 13.65 8.29 13.35 8L13.35 7.97L14.38 6.94ZM8.52 7.97L8.52 8C8.22 8.29 7.75 8.29 7.46 8C7.16 7.7 7.16 7.23 7.46 6.94L7.48 6.94L8.52 7.97Z" fill="#000000" fill-opacity="0" fill-rule="nonzero"/>
		<path id="path" d="M13.88 7.47C13.12 6.71 12.08 6.25 10.93 6.25C9.78 6.25 8.74 6.71 7.99 7.47" stroke="#FFFFFF" stroke-opacity="1.000000" stroke-width="1.500000" stroke-linejoin="round" stroke-linecap="round"/>
		<path id="path" d="M16.8 17.83L16.77 17.83C16.47 17.53 16.47 17.06 16.77 16.77C17.06 16.47 17.53 16.47 17.83 16.77L17.83 16.8L16.8 17.83ZM22.22 21.19L22.25 21.19C22.54 21.48 22.54 21.95 22.25 22.25C21.95 22.54 21.48 22.54 21.19 22.25L21.19 22.22L22.22 21.19Z" fill="#000000" fill-opacity="0" fill-rule="nonzero"/>
		<path id="path" d="M17.3 17.3L21.72 21.72" stroke="#FFFFFF" stroke-opacity="1.000000" stroke-width="1.500000" stroke-linejoin="round" stroke-linecap="round"/>
	</g>
</svg>
