<svg width="24.922852" height="24.000000" viewBox="0 0 24.9229 24" fill="none" xmlns="http://www.w3.org/2000/svg" xmlns:xlink="http://www.w3.org/1999/xlink">
	<desc>
			Created with Pixso.
	</desc>
	<defs>
		<clipPath id="clip150_215">
			<rect id="Домой" width="24.922852" height="24.000000" fill="white" fill-opacity="0"/>
		</clipPath>
	</defs>
	<g clip-path="url(#clip150_215)">
		<path id="path" d="M4.67 9L4.67 21L20.25 21L20.25 9L12.46 3L4.67 9Z" fill="#000000" fill-opacity="0" fill-rule="nonzero"/>
		<path id="path" d="M4.67 21L20.25 21L20.25 9L12.46 3L4.67 9L4.67 21Z" stroke="#FFFFFF" stroke-opacity="1.000000" stroke-width="1.500000" stroke-linejoin="round"/>
		<path id="path" d="M9.86 14.5L9.86 21L15.05 21L15.05 14.5L9.86 14.5Z" fill="#000000" fill-opacity="0" fill-rule="nonzero"/>
		<path id="path" d="M9.86 21L15.05 21L15.05 14.5L9.86 14.5L9.86 21Z" stroke="#FFFFFF" stroke-opacity="1.000000" stroke-width="1.500000" stroke-linejoin="round"/>
		<path id="path" d="M4.69 21.73L4.67 21.75C4.25 21.75 3.92 21.42 3.92 21C3.92 20.58 4.25 20.25 4.67 20.25L4.69 20.27L4.69 21.73ZM20.22 20.27L20.24 20.25C20.66 20.25 20.99 20.58 20.99 21C20.99 21.42 20.66 21.75 20.24 21.75L20.22 21.73L20.22 20.27Z" fill="#000000" fill-opacity="0" fill-rule="nonzero"/>
		<path id="path" d="M4.67 21L20.24 21" stroke="#FFFFFF" stroke-opacity="1.000000" stroke-width="1.500000" stroke-linecap="round"/>
	</g>
</svg>
