<svg width="24.000000" height="24.000000" viewBox="0 0 24 24" fill="none" xmlns="http://www.w3.org/2000/svg" xmlns:xlink="http://www.w3.org/1999/xlink">
	<desc>
			Created with Pixso.
	</desc>
	<defs>
		<clipPath id="clip150_272">
			<rect id="Информация" width="24.000000" height="24.000000" fill="white" fill-opacity="0"/>
		</clipPath>
	</defs>
	<g clip-path="url(#clip150_272)">
		<path id="path" d="M22 12C22 17.52 17.52 22 12 22C9.01 22 2 22 2 22C2 22 2 14.53 2 12C2 6.47 6.47 2 12 2C17.52 2 22 6.47 22 12Z" fill="#000000" fill-opacity="0" fill-rule="nonzero"/>
		<path id="path" d="M12 22C9.01 22 2 22 2 22C2 22 2 14.53 2 12C2 6.47 6.47 2 12 2C17.52 2 22 6.47 22 12C22 17.52 17.52 22 12 22Z" stroke="#B99FA9" stroke-opacity="1.000000" stroke-width="1.500000" stroke-linejoin="round"/>
		<path id="path" d="M7.02 9.72L7 9.75C6.58 9.75 6.25 9.41 6.25 9C6.25 8.58 6.58 8.25 7 8.25L7.02 8.27L7.02 9.72ZM15.98 8.27L16 8.25C16.41 8.25 16.75 8.58 16.75 9C16.75 9.41 16.41 9.75 16 9.75L15.98 9.72L15.98 8.27Z" fill="#000000" fill-opacity="0" fill-rule="nonzero"/>
		<path id="path" d="M7 9L16 9" stroke="#B99FA9" stroke-opacity="1.000000" stroke-width="1.500000" stroke-linejoin="round" stroke-linecap="round"/>
		<path id="path" d="M7.02 13.73L7 13.75C6.58 13.75 6.25 13.42 6.25 13C6.25 12.58 6.58 12.25 7 12.25L7.02 12.27L7.02 13.73ZM15.98 12.27L16 12.25C16.41 12.25 16.75 12.58 16.75 13C16.75 13.42 16.41 13.75 16 13.75L15.98 13.73L15.98 12.27Z" fill="#000000" fill-opacity="0" fill-rule="nonzero"/>
		<path id="path" d="M7 13L16 13" stroke="#B99FA9" stroke-opacity="1.000000" stroke-width="1.500000" stroke-linejoin="round" stroke-linecap="round"/>
		<path id="path" d="M7.02 17.73L7 17.75C6.58 17.75 6.25 17.42 6.25 17C6.25 16.58 6.58 16.25 7 16.25L7.02 16.27L7.02 17.73ZM11.98 16.27L12 16.25C12.41 16.25 12.75 16.58 12.75 17C12.75 17.42 12.41 17.75 12 17.75L11.98 17.73L11.98 16.27Z" fill="#000000" fill-opacity="0" fill-rule="nonzero"/>
		<path id="path" d="M7 17L12 17" stroke="#B99FA9" stroke-opacity="1.000000" stroke-width="1.500000" stroke-linejoin="round" stroke-linecap="round"/>
	</g>
</svg>
