<svg width="24.000000" height="24.000000" viewBox="0 0 24 24" fill="none" xmlns="http://www.w3.org/2000/svg" xmlns:xlink="http://www.w3.org/1999/xlink">
	<desc>
			Created with Pixso.
	</desc>
	<defs>
		<clipPath id="clip150_286">
			<rect id="Диск" width="24.000000" height="24.000000" fill="white" fill-opacity="0"/>
		</clipPath>
	</defs>
	<g clip-path="url(#clip150_286)">
		<path id="path" d="M20.5 2L3.5 2C2.67 2 2 2.67 2 3.5L2 20.5C2 21.32 2.67 22 3.5 22L20.5 22C21.32 22 22 21.32 22 20.5L22 3.5C22 2.67 21.32 2 20.5 2Z" fill="#000000" fill-opacity="0" fill-rule="nonzero"/>
		<path id="path" d="M3.5 2C2.67 2 2 2.67 2 3.5L2 20.5C2 21.32 2.67 22 3.5 22L20.5 22C21.32 22 22 21.32 22 20.5L22 3.5C22 2.67 21.32 2 20.5 2L3.5 2Z" stroke="#B99FA9" stroke-opacity="1.000000" stroke-width="1.500000" stroke-linejoin="round"/>
		<path id="path" d="M17 2L17 11L7.5 11L7.5 2L17 2Z" fill="#000000" fill-opacity="0" fill-rule="nonzero"/>
		<path id="path" d="M17 11L7.5 11L7.5 2L17 2L17 11Z" stroke="#B99FA9" stroke-opacity="1.000000" stroke-width="1.500000" stroke-linejoin="round"/>
		<path id="path" d="M13.77 5.52L13.75 5.5C13.75 5.08 14.08 4.75 14.5 4.75C14.91 4.75 15.25 5.08 15.25 5.5L15.23 5.52L13.77 5.52ZM15.23 7.47L15.25 7.5C15.25 7.91 14.91 8.25 14.5 8.25C14.08 8.25 13.75 7.91 13.75 7.5L13.77 7.47L15.23 7.47Z" fill="#000000" fill-opacity="0" fill-rule="nonzero"/>
		<path id="path" d="M14.5 5.5L14.5 7.5" stroke="#B99FA9" stroke-opacity="1.000000" stroke-width="1.500000" stroke-linecap="round"/>
		<path id="path" d="M5.99 2L18.49 2" stroke="#B99FA9" stroke-opacity="1.000000" stroke-width="1.500000" stroke-linecap="round"/>
	</g>
</svg>
