<svg width="24.000000" height="24.000000" viewBox="0 0 24 24" fill="none" xmlns="http://www.w3.org/2000/svg" xmlns:xlink="http://www.w3.org/1999/xlink">
	<desc>
			Created with Pixso.
	</desc>
	<defs>
		<clipPath id="clip150_276">
			<rect id="Лайк" width="24.000000" height="24.000000" fill="white" fill-opacity="0"/>
		</clipPath>
	</defs>
	<g clip-path="url(#clip150_276)">
		<path id="path" d="M7.5 4C4.46 4 2 6.46 2 9.5C2 15 8.5 20 12 21.16C15.5 20 22 15 22 9.5C22 6.46 19.53 4 16.5 4C14.63 4 12.99 4.92 12 6.33C11 4.92 9.36 4 7.5 4Z" fill="#000000" fill-opacity="0" fill-rule="nonzero"/>
		<path id="path" d="M2 9.5C2 15 8.5 20 12 21.16C15.5 20 22 15 22 9.5C22 6.46 19.53 4 16.5 4C14.63 4 12.99 4.92 12 6.33C11 4.92 9.36 4 7.5 4C4.46 4 2 6.46 2 9.5Z" stroke="#B99FA9" stroke-opacity="1.000000" stroke-width="1.500000" stroke-linejoin="round"/>
	</g>
</svg>
