<svg width="24.000000" height="24.000000" viewBox="0 0 24 24" fill="none" xmlns="http://www.w3.org/2000/svg" xmlns:xlink="http://www.w3.org/1999/xlink">
	<desc>
			Created with Pixso.
	</desc>
	<defs>
		<clipPath id="clip150_229">
			<rect id="Конверт 1" width="24.000000" height="24.000000" fill="white" fill-opacity="0"/>
		</clipPath>
	</defs>
	<g clip-path="url(#clip150_229)">
		<path id="path" d="M18.73 7.98L18.75 8C18.75 8.42 18.41 8.75 18 8.75C17.58 8.75 17.25 8.42 17.25 8L17.27 7.98L18.73 7.98ZM5.97 15.27L6 15.25C6.41 15.25 6.75 15.58 6.75 16C6.75 16.42 6.41 16.75 6 16.75L5.97 16.73L5.97 15.27Z" fill="#000000" fill-opacity="0" fill-rule="nonzero"/>
		<path id="path" d="M18 8L18 4L10 4L2 4L2 10L2 16L6 16" stroke="#FFFFFF" stroke-opacity="1.000000" stroke-width="1.500000" stroke-linejoin="round" stroke-linecap="round"/>
		<path id="path" d="M6 20L22 20L22 14L22 8L14 8L6 8L6 14L6 20Z" fill="#000000" fill-opacity="0" fill-rule="nonzero"/>
		<path id="path" d="M22 20L22 14L22 8L14 8L6 8L6 14L6 20L22 20Z" stroke="#FFFFFF" stroke-opacity="1.000000" stroke-width="1.500000" stroke-linejoin="round"/>
		<path id="path" d="M5.57 8.59L5.55 8.6C5.21 8.34 5.14 7.88 5.39 7.55C5.65 7.21 6.11 7.14 6.44 7.39L6.45 7.42L5.57 8.59ZM21.54 7.42L21.55 7.39C21.88 7.14 22.34 7.21 22.6 7.55C22.85 7.88 22.78 8.34 22.45 8.6L22.42 8.59L21.54 7.42Z" fill="#000000" fill-opacity="0" fill-rule="nonzero"/>
		<path id="path" d="M6 8L14 14L22 8" stroke="#FFFFFF" stroke-opacity="1.000000" stroke-width="1.500000" stroke-linejoin="round" stroke-linecap="round"/>
		<path id="path" d="M15.98 7.27L16 7.25C16.41 7.25 16.75 7.58 16.75 8C16.75 8.42 16.41 8.75 16 8.75L15.98 8.72L15.98 7.27ZM6.72 15.48L6.75 15.5C6.75 15.92 6.41 16.25 6 16.25C5.58 16.25 5.25 15.92 5.25 15.5L5.27 15.48L6.72 15.48Z" fill="#000000" fill-opacity="0" fill-rule="nonzero"/>
		<path id="path" d="M16 8L6 8L6 15.5" stroke="#FFFFFF" stroke-opacity="1.000000" stroke-width="1.500000" stroke-linejoin="round" stroke-linecap="round"/>
		<path id="path" d="M22.73 15.48L22.75 15.5C22.75 15.92 22.41 16.25 22 16.25C21.58 16.25 21.25 15.92 21.25 15.5L21.27 15.48L22.73 15.48ZM12.02 8.72L12 8.75C11.58 8.75 11.25 8.42 11.25 8C11.25 7.58 11.58 7.25 12 7.25L12.02 7.27L12.02 8.72Z" fill="#000000" fill-opacity="0" fill-rule="nonzero"/>
		<path id="path" d="M22 15.5L22 8L12 8" stroke="#FFFFFF" stroke-opacity="1.000000" stroke-width="1.500000" stroke-linejoin="round" stroke-linecap="round"/>
	</g>
</svg>
