<svg width="24.000000" height="24.000000" viewBox="0 0 24 24" fill="none" xmlns="http://www.w3.org/2000/svg" xmlns:xlink="http://www.w3.org/1999/xlink">
	<desc>
			Created with Pixso.
	</desc>
	<defs>
		<clipPath id="clip150_234">
			<rect id="Пользователь" width="24.000000" height="24.000000" fill="white" fill-opacity="0"/>
		</clipPath>
	</defs>
	<g clip-path="url(#clip150_234)">
		<circle id="circle" cx="12.000000" cy="6.000000" r="4.000000" stroke="#FFFFFF" stroke-opacity="1.000000" stroke-width="1.500000" stroke-linejoin="round"/>
		<path id="path" d="M21.73 21.98L21.75 22C21.75 22.42 21.41 22.75 21 22.75C20.58 22.75 20.25 22.42 20.25 22L20.27 21.98L21.73 21.98ZM3.72 21.98L3.75 22C3.75 22.42 3.41 22.75 3 22.75C2.58 22.75 2.25 22.42 2.25 22L2.27 21.98L3.72 21.98Z" fill="#FFFFFF" fill-opacity="1.000000" fill-rule="nonzero"/>
		<path id="path" d="M21 22C21 17.02 16.97 13 12 13C7.02 13 3 17.02 3 22" stroke="#FFFFFF" stroke-opacity="1.000000" stroke-width="1.500000" stroke-linejoin="round" stroke-linecap="round"/>
	</g>
</svg>
