<svg width="24.000000" height="24.000000" viewBox="0 0 24 24" fill="none" xmlns="http://www.w3.org/2000/svg" xmlns:xlink="http://www.w3.org/1999/xlink">
	<desc>
			Created with Pixso.
	</desc>
	<defs>
		<clipPath id="clip150_239">
			<rect id="Настроить" width="24.000000" height="24.000000" fill="white" fill-opacity="0"/>
		</clipPath>
	</defs>
	<g clip-path="url(#clip150_239)">
		<path id="path" d="M9.14 21.58C7.46 21.08 5.97 20.16 4.79 18.93C5.23 18.41 5.5 17.73 5.5 17C5.5 15.34 4.15 14 2.5 14C2.39 14 2.3 14 2.2 14.01C2.06 13.36 2 12.69 2 12C2 10.95 2.16 9.94 2.45 8.99C4.11 8.99 5.5 7.65 5.5 6C5.5 5.52 5.38 5.07 5.19 4.67C6.34 3.59 7.76 2.79 9.32 2.36C9.82 3.33 10.83 4 12 4C13.16 4 14.17 3.33 14.67 2.36C16.23 2.79 17.65 3.59 18.8 4.67C18.61 5.07 18.5 5.52 18.5 6C18.5 7.65 19.84 9 21.5 9C21.79 9.94 22 10.95 22 12C22 12.69 21.93 13.36 21.79 14.01C21.69 14 21.6 14 21.5 14C19.84 14 18.5 15.34 18.5 17C18.5 17.73 18.76 18.41 19.2 18.93C18.02 20.16 16.53 21.08 14.85 21.58C14.47 20.37 13.33 19.5 12 19.5C10.66 19.5 9.52 20.37 9.14 21.58Z" fill="#000000" fill-opacity="0" fill-rule="nonzero"/>
		<path id="path" d="M4.79 18.93C5.23 18.41 5.5 17.73 5.5 17C5.5 15.34 4.15 14 2.5 14C2.39 14 2.3 14 2.2 14.01C2.06 13.36 2 12.69 2 12C2 10.95 2.16 9.94 2.45 8.99C4.11 8.99 5.5 7.65 5.5 6C5.5 5.52 5.38 5.07 5.19 4.67C6.34 3.59 7.76 2.79 9.32 2.36C9.82 3.33 10.83 4 12 4C13.16 4 14.17 3.33 14.67 2.36C16.23 2.79 17.65 3.59 18.8 4.67C18.61 5.07 18.5 5.52 18.5 6C18.5 7.65 19.84 9 21.5 9C21.79 9.94 22 10.95 22 12C22 12.69 21.93 13.36 21.79 14.01C21.69 14 21.6 14 21.5 14C19.84 14 18.5 15.34 18.5 17C18.5 17.73 18.76 18.41 19.2 18.93C18.02 20.16 16.53 21.08 14.85 21.58C14.47 20.37 13.33 19.5 12 19.5C10.66 19.5 9.52 20.37 9.14 21.58C7.46 21.08 5.97 20.16 4.79 18.93Z" stroke="#FFFFFF" stroke-opacity="1.000000" stroke-width="1.500000" stroke-linejoin="round"/>
		<path id="path" d="M12 15.5C13.93 15.5 15.5 13.93 15.5 12C15.5 10.06 13.93 8.5 12 8.5C10.06 8.5 8.5 10.06 8.5 12C8.5 13.93 10.06 15.5 12 15.5Z" fill="#000000" fill-opacity="0" fill-rule="nonzero"/>
		<path id="path" d="M15.5 12C15.5 10.06 13.93 8.5 12 8.5C10.06 8.5 8.5 10.06 8.5 12C8.5 13.93 10.06 15.5 12 15.5C13.93 15.5 15.5 13.93 15.5 12Z" stroke="#FFFFFF" stroke-opacity="1.000000" stroke-width="1.500000" stroke-linejoin="round"/>
	</g>
</svg>
